# Made in Blockbench 4.9.4
mtllib fishbig.mtl

o leg2
v -0.02985297164399725 -0.311875 -0.018246150271718165
v -0.17335925878090586 -0.311875 -0.3647009749634508
v -0.02985297164399725 -0.499375 -0.018246150271718165
v -0.17335925878090586 -0.499375 -0.3647009749634508
v -0.34658667112677216 -0.311875 -0.2929478313949964
v -0.2030803839898635 -0.311875 0.05350699329673614
v -0.34658667112677216 -0.499375 -0.2929478313949964
v -0.2030803839898635 -0.499375 0.05350699329673614
vt 0.1875 0.625
vt 0.375 0.625
vt 0.375 0.4375
vt 0.1875 0.4375
vt 0 0.8125
vt 0.375 0.8125
vt 0.375 0.625
vt 0 0.625
vt 0 1
vt 0.375 1
vt 0.375 0.8125
vt 0 0.8125
vt 0 0.625
vt 0.1875 0.625
vt 0.1875 0.25
vt 0 0.25
vt 0.5625 0.625
vt 0.375 0.625
vt 0.375 1
vt 0.5625 1
vn -0.3826834323650897 0 -0.9238795325112867
vn 0.9238795325112867 0 -0.3826834323650897
vn -0.9238795325112867 0 0.3826834323650897
vn 0 1 0
vn 0 -1 0
usemtl m_154be64c-7741-1987-de04-9d7625a1cf8a
f 4/4/1 7/3/1 5/2/1 2/1/1
f 3/8/2 4/7/2 2/6/2 1/5/2
f 7/12/3 8/11/3 6/10/3 5/9/3
f 6/16/4 1/15/4 2/14/4 5/13/4
f 7/20/5 4/19/5 3/18/5 8/17/5
o leg
v 0.21272373285610346 -0.311875 0.06581788644727515
v 0.35623001999301207 -0.311875 -0.28063693824445735
v 0.21272373285610346 -0.499375 0.06581788644727515
v 0.35623001999301207 -0.499375 -0.28063693824445735
v 0.18300260764714582 -0.311875 -0.35239008181291165
v 0.039496320510237215 -0.311875 -0.005935257121179149
v 0.18300260764714582 -0.499375 -0.35239008181291165
v 0.039496320510237215 -0.499375 -0.005935257121179149
vt 0.1875 0.625
vt 0.375 0.625
vt 0.375 0.4375
vt 0.1875 0.4375
vt 0 1
vt 0.375 1
vt 0.375 0.8125
vt 0 0.8125
vt 0 0.8125
vt 0.375 0.8125
vt 0.375 0.625
vt 0 0.625
vt 0.1875 0.25
vt 0 0.25
vt 0 0.625
vt 0.1875 0.625
vt 0.5625 1
vt 0.375 1
vt 0.375 0.625
vt 0.5625 0.625
vn 0.3826834323650897 0 -0.9238795325112867
vn 0.9238795325112867 0 0.3826834323650897
vn -0.9238795325112867 0 -0.3826834323650897
vn 0 1 0
vn 0 -1 0
usemtl m_3f97eada-fd3f-cec2-d404-27d88fced6c2
f 12/24/6 15/23/6 13/22/6 10/21/6
f 11/28/7 12/27/7 10/26/7 9/25/7
f 15/32/8 16/31/8 14/30/8 13/29/8
f 14/36/9 9/35/9 10/34/9 13/33/9
f 15/40/10 12/39/10 11/38/10 16/37/10
o head
v 0.3125 0.75 0.375
v 0.3125 0.75 -0.1875
v 0.3125 0.1875 0.375
v 0.3125 0.1875 -0.1875
v -0.3125 0.75 -0.1875
v -0.3125 0.75 0.375
v -0.3125 0.1875 -0.1875
v -0.3125 0.1875 0.375
vt 0 1
vt 0.3125 1
vt 0.3125 0.71875
vt 0 0.71875
vt 0 0.4375
vt 0.28125 0.4375
vt 0.28125 0.15625
vt 0 0.15625
vt 0 0.71875
vt 0.3125 0.71875
vt 0.3125 0.4375
vt 0 0.4375
vt 0.28125 0.4375
vt 0.5625 0.4375
vt 0.5625 0.15625
vt 0.28125 0.15625
vt 0.625 0.71875
vt 0.3125 0.71875
vt 0.3125 1
vt 0.625 1
vt 0.625 0.71875
vt 0.3125 0.71875
vt 0.3125 0.4375
vt 0.625 0.4375
vn 0 0 -1
vn 1 0 0
vn 0 0 1
vn -1 0 0
vn 0 1 0
vn 0 -1 0
usemtl m_c0fe2910-e246-716c-bcbe-d598e2978a53
f 20/44/11 23/43/11 21/42/11 18/41/11
f 19/48/12 20/47/12 18/46/12 17/45/12
f 24/52/13 19/51/13 17/50/13 22/49/13
f 23/56/14 24/55/14 22/54/14 21/53/14
f 22/60/15 17/59/15 18/58/15 21/57/15
f 23/64/16 20/63/16 19/62/16 24/61/16
o arm
v -0.10225243558256697 0.07452425971406984 0.1875
v -0.10225243558256697 0.07452425971406984 0
v -0.4116116523516815 -0.2348349570550447 0.1875
v -0.4116116523516815 -0.2348349570550447 0
v -0.23483495705504465 0.20710678118654746 0
v -0.23483495705504465 0.20710678118654746 0.1875
v -0.5441941738241591 -0.10225243558256703 0
v -0.5441941738241591 -0.10225243558256703 0.1875
vt 0 1
vt 0.1875 1
vt 0.1875 0.5625
vt 0 0.5625
vt 0.1875 1
vt 0.375 1
vt 0.375 0.5625
vt 0.1875 0.5625
vt 0.375 1
vt 0.5625 1
vt 0.5625 0.5625
vt 0.375 0.5625
vt 0 0.5625
vt 0.1875 0.5625
vt 0.1875 0.125
vt 0 0.125
vt 0.375 0.375
vt 0.1875 0.375
vt 0.1875 0.5625
vt 0.375 0.5625
vt 0.5625 0.5625
vt 0.375 0.5625
vt 0.375 0.375
vt 0.5625 0.375
vn 0 0 -1
vn 0.7071067811865475 -0.7071067811865476 0
vn 0 0 1
vn -0.7071067811865475 0.7071067811865476 0
vn 0.7071067811865476 0.7071067811865475 0
vn -0.7071067811865476 -0.7071067811865475 0
usemtl m_6d18587d-0e52-d26c-8f7e-075a1555f3c3
f 28/68/17 31/67/17 29/66/17 26/65/17
f 27/72/18 28/71/18 26/70/18 25/69/18
f 32/76/19 27/75/19 25/74/19 30/73/19
f 31/80/20 32/79/20 30/78/20 29/77/20
f 30/84/21 25/83/21 26/82/21 29/81/21
f 31/88/22 28/87/22 27/86/22 32/85/22
o arm
v 0.20710678118654746 0.20710678118654757 0.1875
v 0.20710678118654746 0.20710678118654757 0
v 0.5164659979556621 -0.10225243558256691 0.1875
v 0.5164659979556621 -0.10225243558256691 0
v 0.07452425971406984 0.07452425971406995 0
v 0.07452425971406984 0.07452425971406995 0.1875
v 0.38388347648318444 -0.23483495705504454 0
v 0.38388347648318444 -0.23483495705504454 0.1875
vt 0 1
vt 0.1875 1
vt 0.1875 0.5625
vt 0 0.5625
vt 0.1875 1
vt 0.375 1
vt 0.375 0.5625
vt 0.1875 0.5625
vt 0.375 1
vt 0.5625 1
vt 0.5625 0.5625
vt 0.375 0.5625
vt 0 0.5625
vt 0.1875 0.5625
vt 0.1875 0.125
vt 0 0.125
vt 0.5625 0.5625
vt 0.375 0.5625
vt 0.375 0.375
vt 0.5625 0.375
vn 0 0 -1
vn 0.7071067811865475 0.7071067811865476 0
vn 0 0 1
vn -0.7071067811865475 -0.7071067811865476 0
vn 0.7071067811865476 -0.7071067811865475 0
usemtl m_6d18587d-0e52-d26c-8f7e-075a1555f3c3
f 36/92/23 39/91/23 37/90/23 34/89/23
f 35/96/24 36/95/24 34/94/24 33/93/24
f 40/100/25 35/99/25 33/98/25 38/97/25
f 39/104/26 40/103/26 38/102/26 37/101/26
f 39/108/27 36/107/27 35/106/27 40/105/27
o button
v 0.3125 -0.125 0.3125
v 0.3125 -0.125 -0.125
v 0.3125 -0.5 0.3125
v 0.3125 -0.5 -0.125
v -0.3125 -0.125 -0.125
v -0.3125 -0.125 0.3125
v -0.3125 -0.5 -0.125
v -0.3125 -0.5 0.3125
vt 0.3125 1
vt 0.625 1
vt 0.625 0.8125
vt 0.3125 0.8125
vt 0.3125 0.625
vt 0.53125 0.625
vt 0.53125 0.4375
vt 0.3125 0.4375
vt 0.3125 0.8125
vt 0.625 0.8125
vt 0.625 0.625
vt 0.3125 0.625
vt 0 0.5625
vt 0.21875 0.5625
vt 0.21875 0.375
vt 0 0.375
vt 0.3125 0.78125
vt 0 0.78125
vt 0 1
vt 0.3125 1
vt 0.3125 0.78125
vt 0 0.78125
vt 0 0.5625
vt 0.3125 0.5625
vn 0 0 -1
vn 1 0 0
vn 0 0 1
vn -1 0 0
vn 0 1 0
vn 0 -1 0
usemtl m_bb362a86-7b5e-2a76-4b47-fa980bf409bb
f 44/112/28 47/111/28 45/110/28 42/109/28
f 43/116/29 44/115/29 42/114/29 41/113/29
f 48/120/30 43/119/30 41/118/30 46/117/30
f 47/124/31 48/123/31 46/122/31 45/121/31
f 46/128/32 41/127/32 42/126/32 45/125/32
f 47/132/33 44/131/33 43/130/33 48/129/33
o body
v 0.25 0.1875 0.25
v 0.25 0.1875 -0.0625
v 0.25 -0.125 0.25
v 0.25 -0.125 -0.0625
v -0.25 0.1875 -0.0625
v -0.25 0.1875 0.25
v -0.25 -0.125 -0.0625
v -0.25 -0.125 0.25
vt 0 1
vt 0.5 1
vt 0.5 0.6875
vt 0 0.6875
vt 0 0.375
vt 0.3125 0.375
vt 0.3125 0.0625
vt 0 0.0625
vt 0 0.6875
vt 0.5 0.6875
vt 0.5 0.375
vt 0 0.375
vt 0.3125 0.375
vt 0.625 0.375
vt 0.625 0.0625
vt 0.3125 0.0625
vn 0 0 -1
vn 1 0 0
vn 0 0 1
vn -1 0 0
usemtl m_f5f1390e-f0f3-2b52-64c5-edb3cab84d60
f 52/136/34 55/135/34 53/134/34 50/133/34
f 51/140/35 52/139/35 50/138/35 49/137/35
f 56/144/36 51/143/36 49/142/36 54/141/36
f 55/148/37 56/147/37 54/146/37 53/145/37
o hair
v 0.3125 0.75 -0.21875
v 0.3125 0.75 -0.21875
v 0.3125 0.1875 -0.21875
v 0.3125 0.1875 -0.21875
v -0.3125 0.75 -0.21875
v -0.3125 0.75 -0.21875
v -0.3125 0.1875 -0.21875
v -0.3125 0.1875 -0.21875
vt 0 1
vt 0.3125 1
vt 0.3125 0.71875
vt 0 0.71875
vt 0 1
vt 0 1
vt 0 0.71875
vt 0 0.71875
vt 0.3125 1
vt 0.625 1
vt 0.625 0.71875
vt 0.3125 0.71875
vt 0 1
vt 0 1
vt 0 0.71875
vt 0 0.71875
vt 0.3125 1
vt 0 1
vt 0 1
vt 0.3125 1
vt 0.3125 1
vt 0 1
vt 0 1
vt 0.3125 1
vn 0 0 -1
vn 1 0 0
vn 0 0 1
vn -1 0 0
vn 0 1 0
vn 0 -1 0
usemtl m_ff88ab9c-0541-7e98-b06a-63c2dbd67d32
f 60/152/38 63/151/38 61/150/38 58/149/38
f 59/156/39 60/155/39 58/154/39 57/153/39
f 64/160/40 59/159/40 57/158/40 62/157/40
f 63/164/41 64/163/41 62/162/41 61/161/41
f 62/168/42 57/167/42 58/166/42 61/165/42
f 63/172/43 60/171/43 59/170/43 64/169/43
o hair2
v 0.34375 0.78125 0.4375
v 0.34375 0.78125 0.25
v 0.34375 0.78125 0.4375
v 0.34375 0.78125 0.25
v -0.34375 0.78125 0.25
v -0.34375 0.78125 0.4375
v -0.34375 0.78125 0.25
v -0.34375 0.78125 0.4375
vt 0 1
vt 0.34375 1
vt 0.34375 1
vt 0 1
vt 0 1
vt 0.09375 1
vt 0.09375 1
vt 0 1
vt 0 1
vt 0.34375 1
vt 0.34375 1
vt 0 1
vt 0 1
vt 0.09375 1
vt 0.09375 1
vt 0 1
vt 0 1
vt 0.34375 1
vt 0.34375 0.90625
vt 0 0.90625
vn 0 0 -1
vn 1 0 0
vn 0 0 1
vn -1 0 0
vn 0 1 0
usemtl none
f 68/176/44 71/175/44 69/174/44 66/173/44
f 67/180/45 68/179/45 66/178/45 65/177/45
f 72/184/46 67/183/46 65/182/46 70/181/46
f 71/188/47 72/187/47 70/186/47 69/185/47
usemtl m_42f3f4fa-d7f6-cd56-e749-4c8c696aee45
f 70/192/48 65/191/48 66/190/48 69/189/48
o hair2
v -0.34375 0.78125 0.4375
v -0.34375 0.78125 0.25
v -0.34375 0.15625 0.4375
v -0.34375 0.15625 0.25
v -0.34375 0.78125 0.25
v -0.34375 0.78125 0.4375
v -0.34375 0.15625 0.25
v -0.34375 0.15625 0.4375
vt 0 1
vt 0 1
vt 0 0.6875
vt 0 0.6875
vt 0.09375 0.90625
vt 0.1875 0.90625
vt 0.1875 0.59375
vt 0.09375 0.59375
vt 0 1
vt 0 1
vt 0 0.6875
vt 0 0.6875
vt 0 0.90625
vt 0.09375 0.90625
vt 0.09375 0.59375
vt 0 0.59375
vt 0 1
vt 0 1
vt 0 0.90625
vt 0 0.90625
vt 0 1
vt 0 1
vt 0 0.90625
vt 0 0.90625
vn 0 0 -1
vn 1 0 0
vn 0 0 1
vn -1 0 0
vn 0 1 0
vn 0 -1 0
usemtl none
f 76/196/49 79/195/49 77/194/49 74/193/49
usemtl m_42f3f4fa-d7f6-cd56-e749-4c8c696aee45
f 75/200/50 76/199/50 74/198/50 73/197/50
usemtl none
f 80/204/51 75/203/51 73/202/51 78/201/51
usemtl m_42f3f4fa-d7f6-cd56-e749-4c8c696aee45
f 79/208/52 80/207/52 78/206/52 77/205/52
usemtl none
f 78/212/53 73/211/53 74/210/53 77/209/53
f 79/216/54 76/215/54 75/214/54 80/213/54
o hair2
v 0.34375 0.78125 0.4375
v 0.34375 0.78125 0.25
v 0.34375 0.15625 0.4375
v 0.34375 0.15625 0.25
v 0.34375 0.78125 0.25
v 0.34375 0.78125 0.4375
v 0.34375 0.15625 0.25
v 0.34375 0.15625 0.4375
vt 0 1
vt 0 1
vt 0 0.6875
vt 0 0.6875
vt 0.09375 0.90625
vt 0.1875 0.90625
vt 0.1875 0.59375
vt 0.09375 0.59375
vt 0 1
vt 0 1
vt 0 0.6875
vt 0 0.6875
vt 0 0.90625
vt 0.09375 0.90625
vt 0.09375 0.59375
vt 0 0.59375
vt 0 1
vt 0 1
vt 0 0.90625
vt 0 0.90625
vt 0 1
vt 0 1
vt 0 0.90625
vt 0 0.90625
vn 0 0 -1
vn 1 0 0
vn 0 0 1
vn -1 0 0
vn 0 1 0
vn 0 -1 0
usemtl none
f 84/220/55 87/219/55 85/218/55 82/217/55
usemtl m_42f3f4fa-d7f6-cd56-e749-4c8c696aee45
f 83/224/56 84/223/56 82/222/56 81/221/56
usemtl none
f 88/228/57 83/227/57 81/226/57 86/225/57
usemtl m_42f3f4fa-d7f6-cd56-e749-4c8c696aee45
f 87/232/58 88/231/58 86/230/58 85/229/58
usemtl none
f 86/236/59 81/235/59 82/234/59 85/233/59
f 87/240/60 84/239/60 83/238/60 88/237/60
o hair2
v 0.34375 0.78125 0.4375
v 0.34375 0.78125 0.4375
v 0.34375 0.15625 0.4375
v 0.34375 0.15625 0.4375
v -0.34375 0.78125 0.4375
v -0.34375 0.78125 0.4375
v -0.34375 0.15625 0.4375
v -0.34375 0.15625 0.4375
vt 0.1875 0.90625
vt 0.53125 0.90625
vt 0.53125 0.59375
vt 0.1875 0.59375
vt 0.1875 0.90625
vt 0.53125 0.90625
vt 0.53125 0.59375
vt 0.1875 0.59375
vt 0 1
vt 0 1
vt 0 0.6875
vt 0 0.6875
vt 0 1
vt 0.34375 1
vt 0.34375 1
vt 0 1
vt 0 1
vt 0.34375 1
vt 0.34375 1
vt 0 1
vn 0 0 -1
vn 0 0 1
vn -1 0 0
vn 0 1 0
vn 0 -1 0
usemtl m_42f3f4fa-d7f6-cd56-e749-4c8c696aee45
f 92/244/61 95/243/61 93/242/61 90/241/61
f 96/248/62 91/247/62 89/246/62 94/245/62
usemtl none
f 95/252/63 96/251/63 94/250/63 93/249/63
f 94/256/64 89/255/64 90/254/64 93/253/64
f 95/260/65 92/259/65 91/258/65 96/257/65
